<?xml version="1.0" encoding="UTF-8"?>
<svg version="1.1" xmlns="http://www.w3.org/2000/svg" width="4500" height="2175">
<path d="M0 0 C83.82 0 167.64 0 254 0 C254.33 141.9 254.66 283.8 255 430 C259.29 426.7 263.58 423.4 268 420 C271.25207123 417.70203838 274.49512222 415.44610476 277.8125 413.25 C278.69429932 412.66565186 279.57609863 412.08130371 280.48461914 411.47924805 C361.40850588 358.46747842 458.06471692 337.19987641 639.2421875 352.09375 C722.87380323 369.80462328 799.0731368 410.44494219 862 468 C862.50917969 468.4640625 863.01835938 468.928125 863.54296875 469.40625 C872.43105631 477.51319922 881.23595857 485.64085483 889.0703125 494.79296875 C890.95248668 496.94565785 892.89254678 499.03573959 894.84741211 501.12231445 C900.78816533 507.48703788 906.19720202 514.15572343 911.49609375 521.05908203 C913.08224138 523.10613944 914.69453598 525.13035581 916.3125 527.15234375 C937.02451373 553.16047363 954.44534071 581.96504655 968.95507812 611.86132812 C970.05301763 614.10851272 971.17463742 616.34298625 972.296875 618.578125 C1004.32823396 683.16393568 1021.96959531 759.00796249 1022.203125 831.08203125 C1022.20595238 831.77821753 1022.20877975 832.4744038 1022.21169281 833.19168663 C1022.22656303 836.89317554 1022.23586288 840.59462686 1022.24023438 844.29614258 C1022.24456855 847.27315874 1022.25827871 850.24987679 1022.28125 853.22680664 C1022.48688191 880.46888426 1020.83744998 907.35802167 1016.6875 934.3125 C1016.58361969 934.99993286 1016.47973938 935.68736572 1016.37271118 936.39562988 C1006.22949791 1003.24358545 983.33257064 1068.30490267 948 1126 C947.53754883 1126.76328613 947.07509766 1127.52657227 946.59863281 1128.31298828 C931.19271214 1153.71954575 913.3100907 1177.49697 893.3046875 1199.46044922 C891.84757213 1201.06605452 890.39761645 1202.67821259 888.95776367 1204.29931641 C883.47682325 1210.46449918 877.78321077 1216.36862494 871.9375 1222.1875 C871.09123047 1223.03763672 870.24496094 1223.88777344 869.37304688 1224.76367188 C864.41067475 1229.71839193 859.33206872 1234.44764407 854 1239 C852.91689147 1239.9492931 851.83481095 1240.89976078 850.75390625 1241.8515625 C841.81065496 1249.6525597 832.51985165 1256.91790286 823 1264 C821.90896973 1264.81452637 821.90896973 1264.81452637 820.79589844 1265.64550781 C748.63903577 1319.30878659 661.3601572 1349.9674723 572 1357 C570.82187744 1357.09498779 569.64375488 1357.18997559 568.42993164 1357.2878418 C556.56233775 1358.14274627 544.70695212 1358.20004603 532.8125 1358.1875 C531.7524173 1358.18689575 530.69233459 1358.1862915 529.60012817 1358.18566895 C512.65819454 1358.15951833 495.86297344 1357.77988648 479 1356 C477.77716309 1355.87109375 476.55432617 1355.7421875 475.29443359 1355.609375 C395.23734634 1346.82596886 318.24741479 1319.59793183 255 1269 C254.67 1291.77 254.34 1314.54 254 1338 C170.18 1338 86.36 1338 0 1338 C0 896.46 0 454.92 0 0 Z M323.40625 669.40234375 C318.96529869 674.03728167 314.92230743 678.92149 311 684 C310.2265625 684.95648437 309.453125 685.91296875 308.65625 686.8984375 C279.83538755 723.10692608 263.26303041 766.60605992 256 812 C255.86722656 812.82790039 255.73445313 813.65580078 255.59765625 814.50878906 C251.71105894 840.35029421 252.81228235 868.30206431 257 894 C257.22550537 895.43400146 257.22550537 895.43400146 257.45556641 896.89697266 C261.99071695 924.60236275 271.94256948 951.24470796 285 976 C285.39928711 976.77069824 285.79857422 977.54139648 286.20996094 978.33544922 C301.60274275 1007.87276905 325.39859055 1035.92088734 352 1056 C352.63212402 1056.48146484 353.26424805 1056.96292969 353.91552734 1057.45898438 C408.94619567 1099.14538861 478.11140241 1117.00827388 546.5390625 1107.97265625 C599.70191741 1100.26985722 649.20124796 1077.3687409 688 1040 C688.65935547 1039.36787598 689.31871094 1038.73575195 689.99804688 1038.08447266 C699.48630305 1028.94002521 708.2262044 1019.64265991 716 1009 C716.85806152 1007.84894983 717.71613451 1006.69790823 718.57421875 1005.546875 C724.61236829 997.35569386 729.97095521 988.84195895 735 980 C735.36448242 979.36819824 735.72896484 978.73639648 736.10449219 978.08544922 C749.81395845 954.13320874 758.4954616 927.68307415 763.8125 900.6875 C764.00755127 899.69951416 764.20260254 898.71152832 764.40356445 897.69360352 C767.33500716 881.83381315 768.38562531 865.97959845 768.3125 849.875 C768.31067719 849.03137909 768.30885437 848.18775818 768.30697632 847.318573 C768.25538148 833.04293536 767.46056883 819.08645646 765 805 C764.82839355 804.00548828 764.65678711 803.01097656 764.47998047 801.98632812 C753.67939872 741.41041117 721.15844006 682.81970498 672 645 C670.56720703 643.84177734 670.56720703 643.84177734 669.10546875 642.66015625 C589.09922842 578.95707433 472.39693561 572.17852724 323.40625 669.40234375 Z " fill="#005BFD" transform="translate(893,413)"/>
<path d="M0 0 C0.56444824 0.50805176 1.12889648 1.01610352 1.71044922 1.53955078 C60.46079387 54.66291428 95.36799035 126.4714165 109.1875 203.9375 C109.30837982 204.59372345 109.42925964 205.2499469 109.55380249 205.92605591 C110.52642931 211.26442898 111.28436126 216.62165405 112 222 C112.19211813 223.43053784 112.19211813 223.43053784 112.38811743 224.88997543 C116.02093409 253.52212862 115.41396632 282.3691693 115.35283292 311.17203616 C115.33682951 319.01796718 115.33885867 326.86387132 115.34124239 334.70981465 C115.34515619 349.18178031 115.33526713 363.65370444 115.31719017 378.12565804 C115.29936808 392.43061594 115.28787809 406.73555651 115.28463173 421.04052544 C115.28442551 421.93383705 115.28421929 422.82714866 115.28400682 423.74753032 C115.28299166 428.28520368 115.28208757 432.82287706 115.2812262 437.36055046 C115.27494441 469.40387154 115.25478699 501.4471701 115.22631836 533.49047852 C115.19871363 564.59757366 115.17748808 595.70466262 115.16479492 626.81176758 C115.16440034 627.77258733 115.16400576 628.73340709 115.16359923 629.72334259 C115.15964327 639.37331145 115.15581589 649.02328035 115.15208265 658.67324929 C115.14447639 678.32696124 115.13601263 697.98067279 115.12702942 717.63438416 C115.12661755 718.53779943 115.12620568 719.44121471 115.12578133 720.3720062 C115.1131257 748.03251712 115.09683972 775.69302423 115.07695007 803.35353088 C115.0763874 804.13801251 115.07582473 804.92249413 115.075245 805.73074793 C115.05241231 837.48716703 115.0257216 869.24358313 115 901 C31.18 901 -52.64 901 -139 901 C-139.01458252 882.45474121 -139.02916504 863.90948242 -139.04418945 844.80224609 C-139.05436598 832.41661552 -139.0645928 820.03098514 -139.07551575 807.64535522 C-139.07620828 806.85842539 -139.07690081 806.07149555 -139.07761432 805.26071936 C-139.10099215 778.75678581 -139.12845744 752.25285813 -139.15898132 725.74893188 C-139.15997689 724.88357081 -139.16097246 724.01820974 -139.16199819 723.12662561 C-139.18365955 704.31746918 -139.20598244 685.50831359 -139.22898628 666.69915875 C-139.24026425 657.47440676 -139.25139611 648.2496546 -139.26245117 639.02490234 C-139.26355374 638.10695594 -139.2646563 637.18900954 -139.26579228 636.24324659 C-139.30142521 606.51991132 -139.32742114 576.79657717 -139.34838969 547.07322824 C-139.36999876 516.51436673 -139.40138985 485.95553036 -139.44499113 455.39669194 C-139.45115287 451.07493328 -139.45720343 446.75317447 -139.46318626 442.43141556 C-139.46436715 441.58087817 -139.46554803 440.73034078 -139.46676469 439.85402953 C-139.48544547 426.19354638 -139.49389366 412.53307538 -139.49846124 398.87258103 C-139.50327978 385.12051006 -139.51900715 371.36848516 -139.54566566 357.61643891 C-139.56115453 349.45820118 -139.56848345 341.30005443 -139.56376929 333.14180283 C-139.56116366 327.02966362 -139.57429094 320.9176488 -139.59323552 314.80554052 C-139.59846971 312.34756664 -139.59877417 309.88957573 -139.59339563 307.43160217 C-139.53908696 279.77632563 -142.47796536 252.99437867 -155 228 C-155.33515625 227.32839844 -155.6703125 226.65679688 -156.015625 225.96484375 C-161.16091362 215.84705606 -167.28039249 207.29899792 -175 199 C-175.80179688 198.11699219 -176.60359375 197.23398438 -177.4296875 196.32421875 C-203.53239842 168.80939396 -242.37747692 157.20403753 -279 153 C-279.77085937 152.90501221 -280.54171875 152.81002441 -281.3359375 152.7121582 C-290.65526533 151.69938349 -300.01274752 151.80085742 -309.375 151.8125 C-310.71508621 151.81340637 -310.71508621 151.81340637 -312.08224487 151.81433105 C-325.15436185 151.83836472 -338.04721711 152.08448471 -351 154 C-352.3312793 154.1853833 -352.3312793 154.1853833 -353.68945312 154.37451172 C-391.72188537 159.79551321 -426.83362764 173.38123052 -455 200 C-456.30904297 201.19496094 -456.30904297 201.19496094 -457.64453125 202.4140625 C-492.27074106 235.20741142 -506.3701523 288.26748983 -508.09508765 334.55141743 C-508.13205306 337.1146557 -508.14163091 339.67630847 -508.1386652 342.23980999 C-508.14292853 343.69987536 -508.14292853 343.69987536 -508.14727798 345.189437 C-508.15556599 348.43438012 -508.15688853 351.67928726 -508.15821838 354.92424011 C-508.16278775 357.28074598 -508.16778832 359.63725104 -508.17318195 361.99375516 C-508.18531127 367.77975185 -508.19289499 373.56574193 -508.19854873 379.35174827 C-508.20558504 386.28576429 -508.21835687 393.21976678 -508.23132664 400.15377382 C-508.25510048 412.94901473 -508.27432004 425.74425867 -508.29092598 438.53951073 C-508.30737814 451.20474856 -508.32586555 463.86998074 -508.34705925 476.53521156 C-508.34837686 477.32328674 -508.34969446 478.11136193 -508.351052 478.92331817 C-508.35775427 482.92570523 -508.36449279 486.92809223 -508.37124526 490.93047921 C-508.4189829 519.26460109 -508.46217521 547.59872826 -508.50268555 575.93286133 C-508.5420463 603.4556517 -508.58348805 630.97843766 -508.62768555 658.5012207 C-508.63046289 660.2325452 -508.63324016 661.96386969 -508.63601738 663.69519418 C-508.65859527 677.76338433 -508.68131662 691.83157424 -508.70407274 705.8997641 C-508.80916468 770.9331673 -508.90377552 835.96658185 -509 901 C-593.15 901 -677.3 901 -764 901 C-764 578.59 -764 256.18 -764 -76 C-679.85 -76 -595.7 -76 -509 -76 C-508.67 -61.48 -508.34 -46.96 -508 -32 C-502.06 -35.63 -496.12 -39.26 -490 -43 C-408.76045121 -90.36621365 -312.20949427 -102.95990628 0 0 Z " fill="#015BFD" transform="translate(3492,850)"/>
<path d="M0 0 C0 87.78 0 175.56 0 266 C93.72 266 187.44 266 284 266 C284 347.51 284 429.02 284 513 C190.28 513 96.56 513 0 513 C0.09054874 582.87014718 0.09054874 582.87014718 0.20898438 652.74023438 C0.22703297 662.17211872 0.24489671 671.60400339 0.26245117 681.03588867 C0.2657627 682.80894797 0.2657627 682.80894797 0.26914114 684.61782664 C0.30445577 703.67012188 0.32934535 722.72241707 0.35034702 741.77473285 C0.37215368 761.3455451 0.40525009 780.91631509 0.44870156 800.48709136 C0.47513462 812.5512522 0.49289137 824.61536044 0.49934604 836.67954878 C0.50462555 844.96630248 0.52092791 853.25299015 0.54566566 861.5397084 C0.55959331 866.31184503 0.56888449 871.08386369 0.56500816 875.85602188 C0.40447458 908.58975377 0.40447458 908.58975377 6.625 940.625 C6.87733398 941.47779541 7.12966797 942.33059082 7.38964844 943.20922852 C14.75174996 966.93033982 28.5425686 989.60349533 50.5390625 1002.1953125 C88.37516947 1021.92474977 130.9514917 1021.47607148 172.25 1014.75 C173.35883545 1014.57001465 174.4676709 1014.3900293 175.61010742 1014.20458984 C199.35458373 1010.05454086 222.44277774 1003.12076227 245.52752686 996.31677246 C251.77915258 994.47449259 258.03266273 992.6387123 264.28827286 990.810009 C266.45365014 990.17535743 268.61747279 989.53560137 270.78121948 988.89541626 C272.09480742 988.51030835 273.40845364 988.12539919 274.72216797 987.74072266 C275.8658786 987.40352203 277.00958923 987.06632141 278.18795776 986.71890259 C281 986 281 986 284 986 C284 1066.19 284 1146.38 284 1229 C172.21177002 1267.17159072 57.14434525 1279.40474713 -61.77929688 1224.65283203 C-87.53881557 1211.92651386 -111.51455408 1196.09267115 -133 1177 C-133.72743408 1176.35869141 -134.45486816 1175.71738281 -135.2043457 1175.05664062 C-141.698413 1169.28185901 -147.9162033 1163.26701356 -154.0625 1157.125 C-155.4556543 1155.75021484 -155.4556543 1155.75021484 -156.87695312 1154.34765625 C-163.0251811 1148.21237192 -168.62772493 1141.8216463 -174 1135 C-174.84606812 1133.94280762 -174.84606812 1133.94280762 -175.70922852 1132.86425781 C-187.92839602 1117.52273363 -198.6503517 1101.18971514 -207.95263672 1083.92578125 C-208.98894648 1082.02032405 -210.0556879 1080.13486728 -211.12890625 1078.25 C-247.65500223 1013.06357623 -255.40407709 937.67768827 -255.23213124 864.36715448 C-255.22331669 859.62944955 -255.22642931 854.89174832 -255.22793579 850.15403748 C-255.22897352 841.98764145 -255.22281506 833.82127792 -255.21146011 825.65489006 C-255.1950546 813.84834937 -255.18998191 802.04182404 -255.18748413 790.23527319 C-255.18313033 771.06984449 -255.16988483 751.90443303 -255.15087891 732.73901367 C-255.13245964 714.14559006 -255.11833292 695.55217116 -255.10986328 676.95874023 C-255.10933783 675.80845583 -255.10881239 674.65817142 -255.10827102 673.4730299 C-255.10566053 667.70114122 -255.10313321 661.92925251 -255.10064721 656.15736377 C-255.07998698 608.4382272 -255.04315679 560.71912257 -255 513 C-309.45 513 -363.9 513 -420 513 C-420.28875 498.376875 -420.5775 483.75375 -420.875 468.6875 C-421.00245605 464.08901123 -421.12991211 459.49052246 -421.26123047 454.75268555 C-421.32446289 449.08947754 -421.32446289 449.08947754 -421.33621216 446.42903137 C-421.35756062 444.59069729 -421.4064981 442.75254639 -421.47805786 440.91548157 C-422.03618884 425.8181108 -422.03618884 425.8181108 -418.63012123 421.10407066 C-414.88554202 417.30554894 -410.57433616 414.68824987 -406 412 C-404.50493243 410.84281528 -403.02627962 409.66280305 -401.58984375 408.43359375 C-400.98011719 407.93408203 -400.37039063 407.43457031 -399.7421875 406.91992188 C-399.14664062 406.43072266 -398.55109375 405.94152344 -397.9375 405.4375 C-392.14760902 400.70591598 -386.27481738 396.11528566 -380.328125 391.58203125 C-376.57295545 388.69352598 -372.91414272 385.69004287 -369.25 382.6875 C-363.76944489 378.19849486 -358.21235308 373.83625668 -352.5625 369.5625 C-346.02440371 364.61408487 -339.67572524 359.47713212 -333.37524414 354.23071289 C-328.50707671 350.19469171 -323.54515735 346.31184512 -318.5 342.5 C-311.91767083 337.52513373 -305.51787798 332.36709832 -299.1706543 327.09643555 C-293.10706739 322.06650236 -286.93995035 317.18334162 -280.72363281 312.34423828 C-277.70394683 309.98922539 -274.69670755 307.61837671 -271.6875 305.25 C-270.60829965 304.40075346 -269.5288761 303.55179047 -268.44921875 302.703125 C-267.94308989 302.28569912 -267.43696102 301.86827324 -266.91549492 301.43819809 C-265 300 -265 300 -262.72519112 298.77843094 C-259.90518249 297.09125932 -258.04240745 295.5910098 -256 293 C-254.71416357 287.56975638 -254.95646522 282.2173653 -255.12451172 276.68261719 C-255.14175833 275.014762 -255.15480693 273.34685892 -255.16398621 271.67893982 C-255.19150588 268.09432237 -255.24628213 264.51153004 -255.32171249 260.92760468 C-255.43861245 255.25321026 -255.4800578 249.57979276 -255.50881958 243.90435791 C-255.59692057 228.78748795 -255.78035474 213.67208724 -256.01679146 198.55684018 C-256.17190505 188.62273854 -256.28374198 178.69025001 -256.31432736 168.75491643 C-256.33514313 163.11942492 -256.42414295 157.49052913 -256.56516719 151.85682726 C-256.63745695 148.34107102 -256.64646695 144.82718065 -256.63837624 141.31077766 C-256.64720265 139.68957368 -256.68156276 138.0682603 -256.74433327 136.44824791 C-257.18452549 124.57223463 -257.18452549 124.57223463 -253.54168749 120.28286648 C-249.96545521 117.03802255 -246.01648125 114.50190353 -241.84717298 112.08955812 C-239.18838535 110.52126772 -236.70770528 108.7245043 -234.20703125 106.91796875 C-232.41016299 105.67258864 -230.6119752 104.42911031 -228.8125 103.1875 C-226.82273991 101.80884882 -224.83315987 100.42993775 -222.84375 99.05078125 C-221.8640625 98.37225098 -220.884375 97.6937207 -219.875 96.99462891 C-215.51185792 93.96755088 -211.1613734 90.92252719 -206.8125 87.875 C-205.59300659 87.02071411 -205.59300659 87.02071411 -204.34887695 86.14916992 C-202.71639763 85.00547631 -201.08399169 83.86167797 -199.45166016 82.71777344 C-195.30213572 79.8103791 -191.15097694 76.90531999 -187 74 C-185.33332569 72.83334425 -183.66665902 71.66667759 -182 70.5 C-165.33333333 58.83333333 -148.66666667 47.16666667 -132 35.5 C-130.7620166 34.63338745 -130.7620166 34.63338745 -129.49902344 33.74926758 C-127.83567317 32.58495489 -126.17226191 31.42072935 -124.50878906 30.2565918 C-120.29087191 27.30462804 -116.07409128 24.35106366 -111.859375 21.39453125 C-111.0034375 20.79447266 -110.1475 20.19441406 -109.265625 19.57617188 C-107.67667076 18.46217678 -106.08808038 17.34766235 -104.5 16.23242188 C-64.48312735 -11.81388628 -75.70450545 0 0 0 Z " fill="#015BFD" transform="translate(2335,508)"/>
<path d="M0 0 C1.39899359 1.03070277 2.77563283 2.09263037 4.125 3.1875 C4.75019531 3.68894531 5.37539062 4.19039063 6.01953125 4.70703125 C14.21098681 12.04186401 18.53883541 22.95088333 19.31026459 33.79078484 C19.38336909 36.68902128 19.39535609 39.58108652 19.38378906 42.48022461 C19.38904602 44.12131699 19.38904602 44.12131699 19.39440918 45.79556274 C19.40317238 49.39372203 19.39739267 52.99168263 19.390625 56.58984375 C19.39197407 59.11218808 19.39391662 61.63453216 19.39642334 64.15687561 C19.39936803 69.44159946 19.3952948 74.72627252 19.38574219 80.01098633 C19.37491032 86.07238744 19.3783486 92.13365341 19.389395 98.19505113 C19.39966884 104.07312456 19.39844719 109.95114782 19.39263153 115.82922554 C19.39130959 118.30678896 19.3928909 120.78435589 19.39759064 123.26191521 C19.42302725 140.45268446 19.34061521 157.64703702 14.875 174.375 C14.65811523 175.20684814 14.44123047 176.03869629 14.21777344 176.89575195 C7.32149638 202.4281632 -6.36223985 224.51359764 -24.875 243.1875 C-25.72449219 244.04988281 -26.57398437 244.91226563 -27.44921875 245.80078125 C-38.18481532 256.10892681 -50.87078109 264.0236012 -64.1875 270.5625 C-64.94272949 270.94277344 -65.69795898 271.32304688 -66.47607422 271.71484375 C-82.95380039 279.45320728 -101.45583747 282.5081541 -119.24609375 285.609375 C-121.55795297 286.02099696 -123.86963312 286.43362572 -126.18115234 286.84715271 C-131.87082747 287.86259942 -137.56219815 288.86809169 -143.25434291 289.86959296 C-150.17989902 291.08882883 -157.10304449 292.32151482 -164.0260669 293.5550431 C-173.93904916 295.32124781 -183.8524676 297.08497656 -193.76695251 298.84272766 C-218.35941509 303.20291094 -242.94651379 307.59256394 -267.53125 311.99609375 C-269.42846308 312.33588585 -271.3256767 312.67567491 -273.22289085 313.01546097 C-280.96331947 314.40177634 -288.70373186 315.78818225 -296.44410992 317.17477989 C-310.53247379 319.69846889 -324.62122319 322.21999795 -338.71020508 324.74023438 C-339.7279036 324.92228086 -340.74560211 325.10432734 -341.79413998 325.29189038 C-346.96467628 326.2167891 -352.13521795 327.14165779 -357.30576134 328.06651688 C-396.76987369 335.1255638 -436.23331479 342.18835794 -475.69578552 349.25657654 C-476.72050915 349.44011623 -477.74523278 349.62365593 -478.80100864 349.81275743 C-485.01788945 350.92627266 -485.01788945 350.92627266 -491.23476636 352.03980958 C-504.66977255 354.44621577 -518.10504596 356.85112279 -531.54058743 359.25453854 C-541.9516578 361.11693661 -552.3625842 362.9801389 -562.7734375 364.84375 C-564.33054754 365.12246944 -564.33054754 365.12246944 -565.91911435 365.40681958 C-598.26593103 371.19721568 -630.60620535 377.02327983 -662.94328487 382.86779475 C-671.65526133 384.44216623 -680.36761439 386.01443968 -689.08023071 387.58526611 C-690.90687616 387.91460124 -690.90687616 387.91460124 -692.77042353 388.25058961 C-698.86877961 389.35001022 -704.9671866 390.4491479 -711.06562996 391.54808426 C-724.14011564 393.90455541 -737.21325045 396.26828254 -750.28476083 398.64120293 C-759.17205475 400.25395787 -768.06079508 401.85856684 -776.95069945 403.45686913 C-782.08667441 404.38055757 -787.221894 405.30802004 -792.35536575 406.24552917 C-797.07459949 407.10733644 -801.79561647 407.9585753 -806.51822448 408.80168962 C-808.2223854 409.10783211 -809.92586838 409.41777968 -811.62855172 409.73203611 C-837.47909763 414.49670437 -837.47909763 414.49670437 -846.875 409.57421875 C-853.72409531 404.82533431 -856.82911929 399.10171235 -858.875 391.1875 C-859.24789751 388.17964285 -859.27454659 385.22724545 -859.23828125 382.19921875 C-859.23877975 381.37476761 -859.23927826 380.55031647 -859.23979187 379.70088196 C-859.23746824 377.96893893 -859.22784196 376.23699141 -859.21118164 374.50512695 C-859.18765103 371.89177319 -859.19062693 369.27944823 -859.19726562 366.66601562 C-859.16219737 344.83693682 -854.70571662 325.90383181 -839.33984375 309.56640625 C-826.12795243 296.81515139 -808.50305214 291.10576093 -791.63882446 284.7991333 C-786.10471109 282.72899944 -780.57830285 280.63843768 -775.05078125 278.55078125 C-773.89255356 278.11388977 -772.73432587 277.67699829 -771.54100037 277.22686768 C-758.56257312 272.32594736 -745.62505041 267.32009461 -732.6875 262.3125 C-713.93394845 255.05840168 -695.16447518 247.84802886 -676.375 240.6875 C-654.04035651 232.17479396 -631.73526494 223.58730578 -609.43995667 214.97216797 C-608.26609909 214.5185791 -607.09224152 214.06499023 -605.8828125 213.59765625 C-604.71318466 213.14567871 -603.54355682 212.69370117 -602.33848572 212.22802734 C-590.08457726 207.49382219 -577.82418591 202.77651816 -565.5625 198.0625 C-564.49859039 197.65345428 -563.43468079 197.24440857 -562.33853149 196.82296753 C-556.99057721 194.76686566 -551.64253103 192.71100294 -546.29443359 190.65527344 C-536.57268319 186.91823206 -526.85181222 183.1789042 -517.13085938 179.43978882 C-513.87634559 178.18801755 -510.62177524 176.93639345 -507.3671875 175.68481445 C-497.64479733 171.94590028 -487.92266579 168.20632124 -478.20191956 164.46313477 C-455.04335707 155.54550698 -431.87527393 146.65391697 -408.6875 137.8125 C-386.24953475 129.25668461 -363.8403148 120.62795298 -341.44064331 111.97244263 C-339.67951706 111.29192337 -339.67951706 111.29192337 -337.8828125 110.59765625 C-336.71315948 110.14566864 -335.54350647 109.69368103 -334.33840942 109.22799683 C-322.08452529 104.4938047 -309.82416035 99.77650833 -297.5625 95.0625 C-296.49859039 94.65345428 -295.43468079 94.24440857 -294.33853149 93.82296753 C-288.99057721 91.76686566 -283.64253103 89.71100294 -278.29443359 87.65527344 C-268.57268319 83.91823206 -258.85181222 80.1789042 -249.13085938 76.43978882 C-245.87634559 75.18801755 -242.62177524 73.93639345 -239.3671875 72.68481445 C-229.64479733 68.94590028 -219.92266579 65.20632124 -210.20191956 61.46313477 C-187.04335726 52.54550705 -163.87529607 43.65385868 -140.6875 34.8125 C-121.12933614 27.35498614 -101.58894388 19.85258442 -82.0625 12.3125 C-80.27194687 11.6211496 -80.27194687 11.6211496 -78.44522095 10.91583252 C-76.130247 10.02181101 -73.81536905 9.12754088 -71.50059509 8.23300171 C-69.30803847 7.38582257 -67.11522513 6.53930748 -64.9221344 5.69351196 C-60.12726789 3.84231059 -55.33800352 1.9800314 -50.56494141 0.07324219 C-49.75245438 -0.24935577 -48.93996735 -0.57195374 -48.1028595 -0.90432739 C-46.64342193 -1.4850301 -45.18602059 -2.07089865 -43.73149109 -2.66378784 C-28.94892958 -8.5301521 -13.83248935 -8.77469137 0 0 Z " fill="#FE0101" transform="translate(3586.875,252.8125)"/>
<path d="M0 0 C0.66 0.33 1.32 0.66 2 1 C-3.61 6.61 -9.22 12.22 -15 18 C-15 12.50089132 -9.68936771 8.76735434 -6 5 C-4.05347234 3.22256464 -2.09090037 1.6083849 0 0 Z " fill="#FE5858" transform="translate(2756,555)"/>
</svg>
