<svg width="57" height="34" viewBox="0 0 57 34" fill="none" xmlns="http://www.w3.org/2000/svg">
<path d="M55.4828 0.0300353C55.9831 0.259162 56.2057 0.652378 56.174 1.24671C56.1442 1.81202 56.1675 2.37933 56.1675 2.94664C56.1675 4.95375 55.1754 6.17642 53.3375 6.51761C50.2691 7.08593 47.2062 7.68426 44.1405 8.27358C42.3408 8.61977 40.5439 8.97597 38.7441 9.31916C38.2569 9.41221 38.0455 9.2141 38.0231 8.68581C37.97 7.41911 38.202 7.02589 39.2965 6.57464C44.5429 4.41045 55.086 0.0500463 55.1102 0.0300353C55.2192 -0.0119879 55.3925 -0.00798568 55.4828 0.0300353Z" fill="#FF0000"/>
<path d="M56.2634 33.5685H50.9723C50.9723 33.3604 50.9528 32.9812 50.9528 32.8021C50.9528 28.6178 50.8661 24.4555 50.9127 20.2712C50.9379 17.9549 49.7576 16.9574 47.8433 16.8423C47.1474 16.7913 46.0631 16.8623 45.263 17.2385C43.8955 18.03 43.5564 18.8414 43.3123 20.6584C43.3123 21.0836 43.3002 21.3038 43.3002 21.6039C43.2983 25.355 43.3151 29.071 43.3151 32.8221V33.5695H38.0156V11.7625C39.7408 11.7625 41.5648 11.7595 43.3114 11.7595C43.3244 12.0667 43.3086 12.5439 43.317 12.7671C43.9989 12.3628 44.8848 11.8876 45.7427 11.6624C47.8955 11.1261 50.1358 11.2162 52.1824 12.3008C54.5708 13.5675 55.9774 16.0709 56.1591 18.3681C56.1815 18.5462 56.1591 18.8084 56.1898 18.9845C56.1898 23.7861 56.2634 28.7659 56.2634 33.5675V33.5685Z" fill="white"/>
<path d="M31.3783 33.9017C30.7225 33.8057 30.0947 33.6726 29.4799 33.4254C26.4906 32.2248 24.9061 29.8135 24.7179 26.4656C24.5605 23.6751 24.662 20.8685 24.6489 18.069C24.648 17.8208 24.6489 17.5717 24.6489 17.2695H21.2302V15.2454C21.2302 15.2454 23.6438 13.2233 24.5875 12.4389C24.5847 12.1927 24.5903 8.56574 24.5903 8.56574L28.1851 5.83823C28.1851 5.83823 29.1529 5.83323 29.8935 5.83323C29.8935 7.91538 29.9075 9.79141 29.9075 11.7745H35.764V17.2205H29.9242C29.914 17.4466 29.9 17.6207 29.9 17.7958C29.8981 20.3622 29.8981 22.9297 29.9 25.4961C29.9 25.7622 29.9009 26.0324 29.941 26.2935C30.0882 27.9284 31.1035 28.7098 33.1576 28.4887C34.091 28.3576 34.7319 28.1805 35.7696 27.7463C35.7677 27.8033 35.7845 33.1593 35.7845 33.1593C35.7845 33.1593 34.4915 33.8247 32.9955 33.9047C32.5185 33.9497 31.75 33.9557 31.3783 33.9017Z" fill="white"/>
<path d="M0 3.73707H5.30229V13.1813C6.19749 12.728 7.03773 12.1727 7.95064 11.8625C12.9921 10.1476 18.6875 12.658 20.5524 18.5953C21.9628 23.0847 21.2678 27.252 18.1817 30.779C16.6186 32.565 14.0745 33.6656 12.3968 33.8927C12.2459 33.9147 12.0745 33.9317 11.9218 33.9497C11.3349 34.0168 10.7387 34.0168 10.1518 33.9497C9.43177 33.8677 8.70704 33.7046 8.03541 33.4374C7.10387 33.0672 6.22171 32.557 5.30042 32.0977V33.4494H0V3.73707ZM15.9506 22.6225C15.946 19.3817 13.6255 16.8513 10.6511 16.8433C7.65161 16.8353 5.31347 19.3657 5.30881 22.6255C5.30415 25.8843 7.6423 28.4367 10.6307 28.4337C13.6255 28.4307 15.9553 25.8863 15.9506 22.6225Z" fill="white"/>
</svg>
