<svg width="136" height="77" viewBox="0 0 136 77" fill="none" xmlns="http://www.w3.org/2000/svg">
<g clip-path="url(#clip0_255_2009)">
<path d="M134.113 0.0679758C135.322 0.586883 135.86 1.47741 135.784 2.8234C135.712 4.10367 135.768 5.38848 135.768 6.67329C135.768 11.2188 133.37 13.9878 128.927 14.7605C121.51 16.0476 114.107 17.4027 106.696 18.7373C102.346 19.5213 98.0027 20.328 93.6524 21.1053C92.4748 21.316 91.9636 20.8673 91.9096 19.6709C91.7813 16.8022 92.3419 15.9117 94.9877 14.8897C107.669 9.9884 133.154 0.113295 133.212 0.0679758C133.476 -0.027195 133.895 -0.0181311 134.113 0.0679758Z" fill="#FF0000"/>
<path d="M136 76.0234H123.21C123.21 75.5521 123.163 74.6932 123.163 74.2876C123.163 64.8113 122.954 55.3849 123.066 45.9086C123.127 40.6629 120.274 38.4037 115.647 38.1431C113.965 38.0275 111.344 38.1884 109.41 39.0404C106.104 40.8328 105.285 42.6705 104.695 46.7855C104.695 47.7486 104.665 48.2471 104.665 48.9269C104.661 57.422 104.701 65.8378 104.701 74.333V76.0256H91.8916V26.6388C96.0617 26.6388 100.471 26.632 104.692 26.632C104.724 27.3276 104.686 28.4085 104.706 28.9138C106.354 27.9984 108.496 26.922 110.569 26.4122C115.773 25.1976 121.188 25.4016 126.135 27.8579C131.909 30.7266 135.309 36.396 135.748 41.5987C135.802 42.0021 135.748 42.5958 135.822 42.9946C135.822 53.869 136 65.1467 136 76.0211V76.0234Z" fill="#125EFA"/>
<path d="M75.8483 76.7779C74.2631 76.5604 72.7454 76.259 71.2593 75.6993C64.0336 72.9802 60.2035 67.5192 59.7487 59.9372C59.3681 53.6174 59.6136 47.2614 59.582 40.9212C59.5798 40.3592 59.582 39.795 59.582 39.1107H51.3183V34.5266C51.3183 34.5266 57.1525 29.9471 59.4334 28.1706C59.4267 27.6131 59.4402 19.399 59.4402 19.399L68.1295 13.2219C68.1295 13.2219 70.469 13.2106 72.2591 13.2106C72.2591 17.9261 72.2928 22.1748 72.2928 26.666H86.4492V38.9996H72.3334C72.3086 39.5118 72.2748 39.906 72.2748 40.3026C72.2703 46.1148 72.2703 51.9293 72.2748 57.7415C72.2748 58.3443 72.2771 58.9561 72.3739 59.5475C72.7297 63.2501 75.184 65.0198 80.149 64.519C82.4052 64.2222 83.9544 63.8211 86.4627 62.8377C86.4582 62.9668 86.4988 75.0966 86.4988 75.0966C86.4988 75.0966 83.3734 76.6035 79.7572 76.7847C78.6043 76.8867 76.7467 76.9003 75.8483 76.7779Z" fill="#125EFA"/>
<path d="M0 8.46341H12.8166V29.8519C14.9805 28.8254 17.0115 27.5678 19.2182 26.8654C31.4044 22.9815 45.1712 28.6668 49.6791 42.1131C53.0882 52.2805 51.4084 61.7183 43.9485 69.7058C40.1702 73.7506 34.0208 76.2432 29.9655 76.7575C29.6008 76.8074 29.1864 76.8459 28.8172 76.8867C27.3986 77.0385 25.9575 77.0385 24.539 76.8867C22.7984 76.7009 21.0466 76.3315 19.4231 75.7265C17.1714 74.8881 15.0391 73.7325 12.8121 72.6924V75.7537H0V8.46341ZM38.5557 51.2336C38.5445 43.8942 32.9355 38.1635 25.7459 38.1454C18.4954 38.1272 12.8437 43.8579 12.8324 51.2404C12.8211 58.6207 18.4729 64.4012 25.6963 64.3944C32.9355 64.3876 38.567 58.6252 38.5557 51.2336Z" fill="#125EFA"/>
</g>
<defs>
<clipPath id="clip0_255_2009">
<rect width="136" height="77" fill="white"/>
</clipPath>
</defs>
</svg>
